<?xml version="1.0" encoding="UTF-8"?>
<svg id="Layer_2" data-name="Layer 2" xmlns="http://www.w3.org/2000/svg" viewBox="0 0 3428.35 1405">
  <defs>
    <style>
      .cls-1 {
        letter-spacing: -.02em;
      }

      .cls-2 {
        letter-spacing: .03em;
      }

      .cls-3 {
        letter-spacing: 0em;
      }

      .cls-4 {
        font-family: SonnyCond-Bold, 'Sonny Cond';
        font-size: 182.65px;
        font-weight: 700;
        letter-spacing: .22em;
      }

      .cls-4, .cls-5 {
        fill: #fff;
      }

      .cls-6 {
        fill-rule: evenodd;
      }

      .cls-6, .cls-7, .cls-8, .cls-5 {
        stroke-width: 0px;
      }

      .cls-8 {
        fill: #20a39e;
      }

      .cls-9 {
        font-family: ManusSmooth, 'Manus Smooth';
        font-size: 253.8px;
      }

      .cls-10 {
        letter-spacing: 0em;
      }

      .cls-11 {
        letter-spacing: .03em;
      }

      .cls-12 {
        letter-spacing: -.03em;
      }

      .cls-13 {
        fill: none;
        stroke: #000;
        stroke-linejoin: round;
        stroke-width: 57.95px;
      }

      .cls-14 {
        letter-spacing: .02em;
      }
    </style>
  </defs>
  <g id="Layer_1-2" data-name="Layer 1">
    <g>
      <g>
        <path class="cls-5" d="M1984.66,372.72l-.03,1.98c-.14,9.82-7.82,17.87-17.62,18.46h0c-.49.03-1,.03-1.49.03-285.45-.15-351.23-9.27-444.74,111.37-40.61,51.36-54.26,99.24-52.16,164.48.02.62.07,1.25.14,1.87,6.73,55.86,22.74,103.73,63.85,143.22.59.56,1.22,1.1,1.86,1.59,71.49,54.28,140.79,64.69,229.42,56.82.42-.04.85-.09,1.27-.15,78.24-11.49,142.91-39.08,194.82-100.11.31-.37.62-.75.9-1.14l3.29-4.46c8.99-12.18,27.97-9.25,32.86,5.09l.64,1.87c.33.97.59,1.99.75,3,8.6,51.78,8.67,53.38-7.32,77.88-.88,1.35-1.93,2.59-3.12,3.67-84.6,77.08-206.99,109.12-319.09,106.2-.49-.01-.99-.04-1.48-.09-116.85-10.74-218.89-69.61-298.8-153.87-.34-.36-.68-.74-.99-1.12-33.15-39.95-54.84-84.78-75.35-132.24-2.7-6.14-5.41-12.28-8.19-18.59-.18-.41-.35-.83-.51-1.26-35.41-96.6-25.26-213.75,16.84-305.84,2.85-6.39,5.71-12.78,8.65-19.37,36.84-73.55,145.1-154.07,207.04-195.94,21.76-14.71,51.53-3.47,58.18,21.95l5.76,22.03s2.02,6.28,3.57,16.78c1.78,12.01,14.38,19.16,25.62,14.58l1.72-.7c11.15-4.51,22.31-9.01,33.46-13.52,5.55-2.26,11.1-4.52,16.83-6.85,72.58-29.24,151.49-39.08,228.79-21.67,1.28.29,2.54.7,3.73,1.24,40.34,18.2,62.67,49.36,81.02,88.82.95,2.03,1.51,4.23,1.68,6.47l8.1,105.82c.04.57.06,1.13.05,1.7Z"/>
        <path class="cls-5" d="M1908.37,481.26l67.81.29s.06.03.06.06c2.33,161.91-9.31,169.85-49.3,230.5-.04.05-.08.1-.13.15-36.92,34.67-75.17,48.94-113.42,62.52-8.79,2.93-11.06,4.21-16.59,5.53-5.23,1.25-10.58,2.72-16.05,3.32-53.8,5.91-105.5-1.98-154.63-33.28-29.96-30.45-33.46-73.83-35.72-131.83,5.14-37.32,22.3-57.67,46.43-82.73,4.63-4.81,9.93-8.99,15.76-12.26,80.96-34.98,168.32-42.8,255.77-42.26Z"/>
      </g>
      <path class="cls-8" d="M1670.82,642.07l25.03,14.65c35.55,15.51,63.92,19.37,101.27,6.68,13.6-5.76,26.93-12.14,40.19-18.64.24,31.78-14.89,66.99-27.57,73.7-12.27,6.49-19.75,16.63-58.73,16.78-36.08-4.35-67.92-33.48-76.02-66.31l-4.16-26.86Z"/>
      <path class="cls-8" d="M1707.55,579.14h0c8.99,2.25,14.46,11.36,12.21,20.36h0c-2.25,8.99-11.36,14.46-20.36,12.21h0c-8.99-2.25-14.46-11.36-12.21-20.36h0c2.25-8.99,11.36-14.46,20.36-12.21Z"/>
      <path class="cls-8" d="M1812.53,579.14h0c8.99,2.25,14.46,11.36,12.21,20.36h0c-2.25,8.99-11.36,14.46-20.36,12.21h0c-8.99-2.25-14.46-11.36-12.21-20.36h0c2.25-8.99,11.36-14.46,20.36-12.21Z"/>
      <path class="cls-6" d="M621.17,213.68c10.43-6.66,30.37,0,26.58,26.58-18.84,44.17-35.46,88.48-49.84,132.92,22.34-30.11,43.39-61.12,63.14-93.04,17.08-19.95,50.31-6.66,36.55,26.58-24.1,38.21-47.36,76.99-69.78,116.3,20.87-14.07,40.81-31.79,59.81-53.17,17.08-23.27,43.66-9.98,33.23,13.29-42.37,95.39-93.03,169.27-152.85,219.31-80.81,32.87-139.51,9.61-176.11-69.78-29.49-60.68-44.32-126.36-39.87-199.37,15.21-16.29,28.52-14.9,39.87,6.65,35.73,86.13,76.59,218.88,80.22,219.3,15.66,1.83-1.02-46.77,6.18-46.51,7.11.26,16.89,42.06,29.91,59.81,4.38,8.29,17.79,1.95,13.29-9.97-9.76-18.13-23.73-56.48-16.61-56.49,7.11,0,26.58,44.31,39.87,66.46,6.18,7.28,15.85.22,9.97-13.29-10.09-22.17-30.37-66.45-23.26-66.46s17.55,26.2,29.91,36.55c6.53,3.93,10.97,1.71,13.29-6.65-15.72-32.61-33.17-63.39-53.17-89.72-3.93-10.1,10.43-6.66,13.29-6.65,10.37,1.18,50.31,13.28,53.17,13.29,10.43,0,12.12-14.7-6.65-23.26-30.61-19.82-62.56-38.13-103.57-46.01-1.44-.28-2.34-1.76-1.86-3.15,15.53-45.24,32.95-89.78,52.26-133.6,17.08-13.3,37.02-13.3,33.23,19.94-10.04,37.69-17.79,75.35-23.26,112.98,24.5-53.49,52.19-104.44,83.07-152.85Z"/>
      <path class="cls-7" d="M94.94,853.63c-20.91,0-39.14-2.12-54.68-6.36-15.55-4.24-28.97-10.03-40.26-17.38v-44.93c10.73,6.78,23.74,12.29,38.99,16.53,15.26,4.24,31.64,6.36,49.17,6.36,28.82,0,53.96-9.18,75.44-27.55,21.47-18.36,32.21-50.99,32.21-97.91V20.34h51.71v667.99c0,32.21-4.53,58.91-13.56,80.11-9.05,21.19-20.64,38.14-34.76,50.86-14.13,12.72-30.38,21.62-48.74,26.7-18.37,5.08-36.87,7.63-55.52,7.63Z"/>
      <path class="cls-7" d="M826.93,610.33V0h51.71v395.02l191.57-225.48h55.1l-150.04,180.55,183.1,260.24h-58.49l-158.51-219.55-62.73,75.44v144.1h-51.71Z"/>
      <path class="cls-7" d="M2107.93,599.59V158.8h46.62l3.39,76.29c12.42-25.43,30.65-45.63,54.68-60.61,24.01-14.97,53.26-22.46,87.73-22.46,48.03,0,84.77,14.98,110.2,44.93,25.43,29.96,38.15,70.93,38.15,122.91v279.73h-51.71v-270.41c0-41.81-9.32-74.45-27.97-97.91-18.65-23.44-46.62-35.18-83.92-35.18-19.79,0-37.59,3.68-53.4,11.02-15.83,7.35-28.97,16.95-39.42,28.82-10.46,11.87-18.52,25.85-24.16,41.96-5.66,16.11-8.48,32.93-8.48,50.44v271.26h-51.71Z"/>
      <path class="cls-7" d="M2774.5,605.53c-30.52,0-59.34-4.95-86.46-14.83-27.13-9.88-50.58-24.58-70.36-44.08-19.79-19.5-35.6-43.79-47.47-72.9-11.87-29.1-17.8-62.86-17.8-101.3,0-32.77,4.94-62.73,14.83-89.85,9.88-27.13,23.44-50.44,40.69-69.93,17.23-19.5,37.43-34.61,60.61-45.35,23.17-10.73,48.03-16.11,74.6-16.11,30.52,0,57.35,5.38,80.53,16.11,23.17,10.74,42.24,25.43,57.22,44.08,14.97,18.65,26.13,40.83,33.48,66.54,7.34,25.72,10.45,53.55,9.32,83.5l-.85,16.95h-317.88c.56,30.52,5.79,57.22,15.68,80.11,9.88,22.89,22.74,42.11,38.57,57.64,15.81,15.55,34.33,27.13,55.52,34.76,21.19,7.63,43.94,11.44,68.24,11.44,28.25,0,53.68-4.09,76.29-12.29,22.6-8.18,41.81-17.09,57.64-26.7v42.38c-15.83,11.31-35.6,20.77-59.34,28.4-23.74,7.63-51.43,11.44-83.07,11.44ZM2743.14,199.49c-36.74,0-67.39,12.71-91.97,38.15-24.58,25.43-39.42,59.63-44.5,102.57h269.56c-1.14-44.08-13.99-78.54-38.57-103.42-24.58-24.86-56.09-37.3-94.52-37.3Z"/>
      <path class="cls-7" d="M3166.65,605.53c-29.39,0-55.67-2.83-78.83-8.48-23.18-5.64-42.68-12.42-58.49-20.34v-44.08c20.34,9.05,40.97,16.4,61.88,22.04,20.9,5.65,45.48,8.48,73.75,8.48s54.38-5.93,75.02-17.8c20.62-11.87,30.94-29.95,30.94-54.25s-9.62-44.5-28.82-57.22c-19.22-12.72-51.15-28.4-95.79-47.05-48.04-19.77-79.83-38-95.36-54.68-15.55-16.66-23.31-38.85-23.31-66.54,0-32.21,14.12-59.19,42.38-80.95,28.25-21.75,66.97-32.64,116.13-32.64,27.68,0,51.56,2.54,71.63,7.63,20.05,5.09,36.87,10.46,50.44,16.11v46.62c-17.52-7.34-35.75-13.7-54.68-19.07-18.94-5.36-41.11-8.05-66.54-8.05-32.78,0-58.91,5.66-78.41,16.95-19.5,11.31-29.24,28.27-29.24,50.86,0,18.65,7.48,34.33,22.46,47.05,14.97,12.71,45.06,28.12,90.28,46.2,43.51,17.52,76.15,35.05,97.91,52.56,21.75,17.52,32.64,43.52,32.64,77.99,0,19.79-4.38,37.17-13.14,52.13-8.77,14.98-20.34,27.42-34.75,37.3-14.41,9.89-31.09,17.25-50.01,22.04-18.94,4.8-38.29,7.21-58.07,7.21Z"/>
      <text class="cls-4" transform="translate(2060.44 812.56)"><tspan x="0" y="0">ssociation</tspan></text>
      <polyline class="cls-13" points="2741.58 1224.84 3399.38 1224.84 3399.38 61.05 2107.4 61.05"/>
      <polyline class="cls-13" points="802.55 1246.3 124.37 1246.3 124.37 928.09"/>
      <text class="cls-9" transform="translate(857.18 1275.31)"><tspan x="0" y="0">“</tspan><tspan class="cls-10" x="75.89" y="0">W</tspan><tspan x="252.02" y="0">e </tspan><tspan class="cls-1" x="391.86" y="0">K</tspan><tspan class="cls-12" x="517.75" y="0">ee</tspan><tspan x="650.49" y="0">p </tspan><tspan class="cls-3" x="814.44" y="0">yo</tspan><tspan x="917.49" y="0">u S</tspan><tspan class="cls-14" x="1262.66" y="0">m</tspan><tspan class="cls-2" x="1421.79" y="0">i</tspan><tspan class="cls-11" x="1480.67" y="0">l</tspan><tspan class="cls-14" x="1546.4" y="0">i</tspan><tspan x="1600.21" y="0">ng”</tspan></text>
    </g>
  </g>
</svg>